<svg xmlns="http://www.w3.org/2000/svg" width="1280" height="640" viewBox="0 0 1280 640" role="img" aria-labelledby="title desc">
  <title id="title">Enterprise Hardening Toolkit social preview</title>
  <desc id="desc">Open-source local-first defensive endpoint hardening audit toolkit preview image.</desc>
  <defs>
    <linearGradient id="bg" x1="0" y1="0" x2="1" y2="1">
      <stop offset="0" stop-color="#0b1f1a"/>
      <stop offset="0.52" stop-color="#122f35"/>
      <stop offset="1" stop-color="#101820"/>
    </linearGradient>
    <linearGradient id="panel" x1="0" y1="0" x2="1" y2="1">
      <stop offset="0" stop-color="#f6fbf8"/>
      <stop offset="1" stop-color="#dbece5"/>
    </linearGradient>
    <filter id="softShadow" x="-20%" y="-20%" width="140%" height="140%">
      <feDropShadow dx="0" dy="20" stdDeviation="18" flood-color="#000000" flood-opacity="0.28"/>
    </filter>
  </defs>

  <rect width="1280" height="640" fill="url(#bg)"/>
  <path d="M0 498 C188 438 286 560 454 504 C625 447 708 382 904 430 C1065 470 1150 430 1280 374 L1280 640 L0 640 Z" fill="#48b58a" opacity="0.18"/>
  <path d="M0 126 C164 92 280 149 396 126 C567 91 660 20 850 68 C1030 113 1126 70 1280 40 L1280 0 L0 0 Z" fill="#7dd3b0" opacity="0.13"/>

  <g transform="translate(98 86)">
    <text x="0" y="0" fill="#8de7bf" font-family="Inter, Arial, sans-serif" font-size="28" font-weight="700" letter-spacing="4">OPEN SOURCE SECURITY</text>
    <text x="0" y="86" fill="#f7fff9" font-family="Inter, Arial, sans-serif" font-size="76" font-weight="800">Enterprise</text>
    <text x="0" y="166" fill="#f7fff9" font-family="Inter, Arial, sans-serif" font-size="76" font-weight="800">Hardening Toolkit</text>
    <text x="0" y="224" fill="#cde7da" font-family="Inter, Arial, sans-serif" font-size="30" font-weight="500">Local-first endpoint audit, scoring, and reporting</text>
    <text x="0" y="268" fill="#cde7da" font-family="Inter, Arial, sans-serif" font-size="30" font-weight="500">for authorized defensive hardening workflows.</text>

    <g transform="translate(0 348)">
      <rect x="0" y="0" width="172" height="48" rx="8" fill="#8de7bf"/>
      <text x="24" y="32" fill="#0b1f1a" font-family="Inter, Arial, sans-serif" font-size="22" font-weight="800">MIT LICENSE</text>
      <rect x="196" y="0" width="214" height="48" rx="8" fill="#203b3b" stroke="#7dd3b0" stroke-opacity="0.6"/>
      <text x="220" y="32" fill="#f7fff9" font-family="Inter, Arial, sans-serif" font-size="22" font-weight="700">DEFENSIVE ONLY</text>
      <rect x="434" y="0" width="198" height="48" rx="8" fill="#203b3b" stroke="#7dd3b0" stroke-opacity="0.6"/>
      <text x="458" y="32" fill="#f7fff9" font-family="Inter, Arial, sans-serif" font-size="22" font-weight="700">LOCAL-FIRST</text>
    </g>
  </g>

  <g transform="translate(814 112)" filter="url(#softShadow)">
    <rect x="0" y="0" width="352" height="416" rx="18" fill="url(#panel)"/>
    <rect x="30" y="34" width="292" height="40" rx="8" fill="#12342e"/>
    <circle cx="58" cy="54" r="7" fill="#8de7bf"/>
    <circle cx="82" cy="54" r="7" fill="#f2c96d"/>
    <circle cx="106" cy="54" r="7" fill="#ef7f6d"/>

    <g transform="translate(42 112)">
      <rect x="0" y="0" width="120" height="104" rx="14" fill="#12342e"/>
      <path d="M60 18 L94 32 L89 72 C86 90 72 100 60 104 C48 100 34 90 31 72 L26 32 Z" fill="#8de7bf"/>
      <path d="M45 61 L56 72 L78 44" fill="none" stroke="#12342e" stroke-width="8" stroke-linecap="round" stroke-linejoin="round"/>

      <rect x="150" y="4" width="130" height="18" rx="9" fill="#12342e"/>
      <rect x="150" y="40" width="172" height="14" rx="7" fill="#2f685b" opacity="0.72"/>
      <rect x="150" y="70" width="146" height="14" rx="7" fill="#2f685b" opacity="0.52"/>
    </g>

    <g transform="translate(42 252)">
      <rect x="0" y="0" width="268" height="14" rx="7" fill="#2f685b"/>
      <rect x="0" y="36" width="208" height="14" rx="7" fill="#52a785"/>
      <rect x="0" y="72" width="238" height="14" rx="7" fill="#2f685b" opacity="0.72"/>
      <rect x="0" y="108" width="168" height="14" rx="7" fill="#52a785" opacity="0.8"/>
    </g>
  </g>
</svg>
